<?xml version="1.0" standalone="no"?>
<!DOCTYPE svg PUBLIC "-//W3C//DTD SVG 20010904//EN"
 "http://www.w3.org/TR/2001/REC-SVG-20010904/DTD/svg10.dtd">
<svg version="1.0" xmlns="http://www.w3.org/2000/svg"
 width="200.000000pt" height="200.000000pt" viewBox="0 0 200.000000 200.000000"
 preserveAspectRatio="xMidYMid meet">
<metadata>
Created by potrace 1.14, written by Peter Selinger 2001-2017
</metadata>
<g transform="translate(0.000000,200.000000) scale(0.100000,-0.100000)"
fill="#000000" stroke="none">
<path d="M855 1918 c-85 -15 -187 -48 -265 -85 -41 -20 -77 -39 -80 -42 -3 -3
-25 -19 -49 -35 -50 -32 -163 -142 -208 -201 -80 -107 -147 -263 -170 -400 -9
-52 -9 -247 -1 -306 4 -25 12 -59 18 -75 6 -16 11 -31 11 -34 -4 -28 79 -198
134 -275 56 -78 161 -181 227 -222 29 -18 58 -36 63 -40 34 -27 192 -87 265
-101 250 -49 462 -14 674 112 219 130 393 386 433 634 13 82 8 282 -10 358
-96 415 -453 706 -877 718 -63 2 -137 -1 -165 -6z"/>
</g>
</svg>
