<?xml version="1.0" encoding="utf-8"?>
<!-- Generator: Adobe Illustrator 24.0.1, SVG Export Plug-In . SVG Version: 6.00 Build 0)  -->
<svg version="1.1" id="图层_1" xmlns="http://www.w3.org/2000/svg" xmlns:xlink="http://www.w3.org/1999/xlink" x="0px" y="0px"
	 viewBox="0 0 217.3 141.2" style="enable-background:new 0 0 217.3 141.2;" xml:space="preserve">
<style type="text/css">
	.st0{fill:#D81E06;}
	.st1{fill:#FFD700;}
	.st2{display:none;fill:#D81E06;}
</style>
<path class="st0" d="M38.1,15.7h141.2c10.5,0,15.7,5.2,15.7,15.7v78.4c0,10.5-5.2,15.7-15.7,15.7H38.1c-10.5,0-15.7-5.2-15.7-15.7
	V31.4C22.4,20.9,27.6,15.7,38.1,15.7z"/>
<path class="st0" d="M45.9,23.5h125.5c10.5,0,15.7,5.2,15.7,15.7V102c0,10.5-5.2,15.7-15.7,15.7H45.9c-10.5,0-15.7-5.2-15.7-15.7
	V39.2C30.2,28.8,35.5,23.5,45.9,23.5z"/>
<path class="st1" d="M97.9,81.3L94.7,85L90,83.4l2.7,4.1l-3.2,3.7l4.8-1.2l2.8,4.1v-4.8l4.9-1.2l-4.7-1.7
	C97.4,86.3,97.9,81.3,97.9,81.3z M116.5,71.2h-5l-1.6-4.3l-1.6,4.6h-5l4.1,2.8l-1.6,4.6l4.1-2.9L114,79l-1.6-4.6L116.5,71.2
	L116.5,71.2z M108.3,53.5l0.8,5.1l2.3-4.3l5,0.7l-3.6-3.4l2.3-4.3l-4.3,1.8l-3.5-3.4l0.8,4.8l-4.5,2.1L108.3,53.5L108.3,53.5z
	 M98,31.4l-3.2,3.7L90,33.3l2.8,4.1l-3.3,3.6l4.9-1.2l2.7,4.1v-4.8l5.1-1.2l-4.7-1.8C97.5,36.2,98,31.4,98,31.4z M62.8,52.6l-4.7-14
	l-4.7,14H38.1l12.3,8.6l-4.7,13.9l12.4-8.3l12.3,8.3l-4.7-13.9L78.1,53L62.8,52.6z"/>
<rect class="st2" width="217.3" height="141.2"/>
</svg>
